# xmcd
#
# Track frame offsets:
# 150
# 41550
# 68487
# 97912
# 113297
# 140372
# 173612
# 204125
#
# Disc length: 3183 seconds
#
# Revision: 0
# Processed by: cddbd v1.5.1PL0 Copyright (c) Steve Scherf et al.
# Submitted via: Audion 3.0.2 (http://www.panic.com/audion/)
#
DISCID=540c6d08
DTITLE=LOVEENA - SUITE
DYEAR=1900
DGENRE=
TTITLE0=06
TTITLE1=07
TTITLE2=08
TTITLE3=09
TTITLE4=10
TTITLE5=11
TTITLE6=12
TTITLE7=13
EXTD=
EXTT0=
EXTT1=
EXTT2=
EXTT3=
EXTT4=
EXTT5=
EXTT6=
EXTT7=
PLAYORDER=
